<svg width="35" height="35" viewBox="0 0 35 35" fill="none" xmlns="http://www.w3.org/2000/svg">
<path d="M17.1811 0.921875C7.81588 0.921875 0.227991 8.57812 0.227991 17.875C0.227991 27.2402 7.81588 34.8281 17.1811 34.8281C26.478 34.8281 34.1342 27.2402 34.1342 17.875C34.1342 8.57812 26.478 0.921875 17.1811 0.921875ZM28.3237 8.7832C30.3745 11.2441 31.6049 14.3887 31.6049 17.8066C31.1264 17.6699 26.3413 16.7129 21.5561 17.3281C21.146 16.3711 20.8042 15.5508 20.2573 14.457C25.6577 12.2695 28.0503 9.19336 28.3237 8.7832ZM26.7514 7.07422C26.478 7.48438 24.2905 10.4238 19.1635 12.3379C16.771 7.96289 14.1733 4.4082 13.7631 3.86133C18.3432 2.76758 23.1967 3.92969 26.7514 7.07422ZM10.9604 4.81836C11.3706 5.36523 13.9682 8.91992 16.3608 13.2266C9.59323 15.0039 3.64596 15.0039 2.96237 14.9355C3.9194 10.4922 6.92721 6.73242 10.9604 4.81836ZM2.68893 17.9434C2.68893 17.8066 2.68893 17.6699 2.68893 17.4648C3.30416 17.5332 10.3452 17.6016 17.5229 15.4141C18.0014 16.2344 18.3432 17.0547 18.7534 17.875C13.4897 19.3789 8.70455 23.6172 6.38033 27.582C4.05612 25.0527 2.68893 21.6348 2.68893 17.9434ZM8.22604 29.3594C9.7983 26.2832 13.8999 22.25 19.7104 20.2676C21.7612 25.5312 22.5815 29.9746 22.7866 31.2734C18.1381 33.2559 12.5327 32.709 8.22604 29.3594ZM25.2475 29.9062C25.1108 29.0859 24.2905 24.8477 22.4448 19.584C26.9565 18.9004 30.9214 20.0625 31.4682 20.1992C30.7846 24.2324 28.4604 27.7188 25.2475 29.9062Z" fill="#A79AE0"/>
</svg>
