<svg width="516" height="339" viewBox="0 0 516 339" fill="none" xmlns="http://www.w3.org/2000/svg">
<path d="M0 16C0 7.16344 7.16344 0 16 0H500C508.837 0 516 7.16344 516 16V323C516 331.837 508.837 339 500 339H16C7.16345 339 0 331.837 0 323V16Z" fill="#BCD1FF"/>
<path d="M163.705 224.027L237.319 267.258C238.879 268.177 241.393 268.177 242.953 267.272L354.806 202.004C356.366 201.099 356.366 199.625 354.806 198.705L281.193 155.475C279.647 154.57 277.133 154.57 275.573 155.475L163.72 220.728C162.16 221.648 162.145 223.122 163.705 224.027Z" fill="#AABAFD"/>
<path d="M250.694 228.421C249.814 228.934 249.82 229.77 250.694 230.283L268.84 240.94C269.714 241.453 271.142 241.459 272.022 240.945L307.78 220.082C308.66 219.569 308.655 218.733 307.781 218.22L289.635 207.563C288.761 207.05 287.332 207.044 286.453 207.558L250.694 228.421Z" fill="#2E4277"/>
<path d="M162.55 222.392L162.564 226.744C162.564 227.327 162.954 227.926 163.72 228.379L237.333 271.609C238.893 272.514 241.407 272.514 242.967 271.609L354.821 206.356C355.601 205.903 355.991 205.305 355.991 204.692L355.976 200.355C355.976 200.953 355.586 201.552 354.806 202.004L242.953 267.272C241.393 268.177 238.879 268.177 237.319 267.258L163.705 224.027C162.925 223.574 162.55 222.991 162.55 222.392Z" fill="#798FFE"/>
<path d="M275.355 69.3968C276.914 68.4874 278.182 69.2174 278.187 71.0274L278.386 150.551C278.391 152.35 277.132 154.565 275.573 155.475L165.332 219.788C163.773 220.697 162.505 219.957 162.5 218.157L162.301 138.634C162.296 136.824 163.555 134.619 165.114 133.71L275.355 69.3968Z" fill="#1B2A4F"/>
<path d="M159.34 136.9L159.543 216.421C159.543 217.311 159.86 217.954 160.366 218.246L163.323 219.983C162.817 219.691 162.499 219.049 162.499 218.158L162.297 138.638C162.297 136.828 163.554 134.623 165.114 133.704L275.356 69.398C276.136 68.9455 276.844 68.9017 277.364 69.1936L274.407 67.4561C273.902 67.1641 273.179 67.2078 272.399 67.6604L162.157 131.981C160.597 132.886 159.34 135.09 159.34 136.9Z" fill="#384E85"/>
<path d="M166.28 137.664L166.472 214.489L274.407 151.521L274.216 74.696L166.28 137.664Z" fill="#384E85"/>
<path d="M166.28 137.664L166.312 150.55L274.248 87.5818L274.216 74.696L166.28 137.664Z" fill="#AABAFD"/>
<path d="M256.419 89.9406C257.459 89.3335 258.305 89.7998 258.309 91.0081C258.312 92.2163 257.472 93.6876 256.431 94.2947C255.408 94.8913 254.562 94.4041 254.559 93.1959C254.556 91.9875 255.396 90.5372 256.419 89.9406Z" fill="white"/>
<path d="M262.429 86.4341C263.452 85.8374 264.298 86.3037 264.301 87.512C264.304 88.7202 263.464 90.1915 262.441 90.7881C261.401 91.3952 260.555 90.9079 260.551 89.6997C260.548 88.4914 261.388 87.0412 262.429 86.4341Z" fill="white"/>
<path d="M268.421 82.9379C269.462 82.3308 270.308 82.7971 270.311 84.0054C270.315 85.2137 269.474 86.6849 268.434 87.292C267.393 87.8991 266.547 87.4119 266.544 86.2036C266.54 84.9953 267.381 83.545 268.421 82.9379Z" fill="white"/>
<path d="M186.28 218.691L179.214 222.84L176.17 221.064L183.236 216.915L186.28 218.691Z" fill="#384E85"/>
<path d="M262.305 174.044L255.23 178.199L252.186 176.423L259.261 172.268L262.305 174.044Z" fill="#384E85"/>
<path d="M281.311 162.882L274.236 167.037L271.192 165.261L278.268 161.106L281.311 162.882Z" fill="#384E85"/>
<path d="M268.63 188.865L261.565 193.015L255.282 189.349L262.348 185.2L268.63 188.865Z" fill="#384E85"/>
<path d="M303.48 186.947L296.405 191.102L290.112 187.431L297.187 183.276L303.48 186.947Z" fill="#384E85"/>
<path d="M312.988 181.363L305.913 185.518L291.699 177.225L298.774 173.07L312.988 181.363Z" fill="#384E85"/>
<path d="M289.233 167.503L276.187 175.165L269.895 171.494L282.941 163.832L289.233 167.503Z" fill="#384E85"/>
<path d="M273.764 176.588L266.689 180.743L260.397 177.071L267.472 172.916L273.764 176.588Z" fill="#384E85"/>
<path d="M297.145 172.12L280.561 181.858L274.279 178.193L290.862 168.454L297.145 172.12Z" fill="#384E85"/>
<path d="M278.138 183.281L271.063 187.436L264.78 183.771L271.856 179.616L278.138 183.281Z" fill="#384E85"/>
<path d="M286.06 187.903L278.985 192.058L272.692 188.387L279.768 184.232L286.06 187.903Z" fill="#384E85"/>
<path d="M264.256 182.172L257.181 186.327L250.889 182.655L257.964 178.5L264.256 182.172Z" fill="#384E85"/>
<path d="M252.797 179.627L245.731 183.777L242.688 182.001L249.753 177.852L252.797 179.627Z" fill="#384E85"/>
<path d="M243.299 185.205L236.223 189.36L233.18 187.585L240.255 183.43L243.299 185.205Z" fill="#384E85"/>
<path d="M248.047 210.227L240.972 214.382L234.68 210.71L241.755 206.555L248.047 210.227Z" fill="#384E85"/>
<path d="M233.791 190.789L226.725 194.938L223.681 193.162L230.747 189.013L233.791 190.789Z" fill="#384E85"/>
<path d="M245.25 193.333L238.184 197.483L231.892 193.811L238.958 189.662L245.25 193.333Z" fill="#384E85"/>
<path d="M224.292 196.367L217.217 200.522L214.173 198.746L221.248 194.591L224.292 196.367Z" fill="#384E85"/>
<path d="M235.752 198.911L228.676 203.066L222.384 199.395L229.459 195.24L235.752 198.911Z" fill="#384E85"/>
<path d="M249.624 200.027L242.558 204.176L236.276 200.511L243.341 196.361L249.624 200.027Z" fill="#384E85"/>
<path d="M214.794 201.945L207.719 206.1L204.675 204.324L211.75 200.169L214.794 201.945Z" fill="#384E85"/>
<path d="M226.253 204.489L219.178 208.644L212.886 204.973L219.961 200.818L226.253 204.489Z" fill="#384E85"/>
<path d="M257.545 204.649L250.48 208.798L244.188 205.127L251.253 200.977L257.545 204.649Z" fill="#384E85"/>
<path d="M240.125 205.605L233.05 209.76L226.768 206.094L233.843 201.939L240.125 205.605Z" fill="#384E85"/>
<path d="M205.286 207.529L198.211 211.684L195.167 209.908L202.242 205.753L205.286 207.529Z" fill="#384E85"/>
<path d="M216.745 210.073L209.67 214.228L203.377 210.557L210.453 206.402L216.745 210.073Z" fill="#384E85"/>
<path d="M230.627 211.183L223.552 215.338L217.269 211.672L224.345 207.517L230.627 211.183Z" fill="#384E85"/>
<path d="M207.247 215.651L200.171 219.806L193.879 216.135L200.954 211.98L207.247 215.651Z" fill="#384E85"/>
<path d="M238.549 215.804L231.473 219.96L225.181 216.288L232.256 212.133L238.549 215.804Z" fill="#384E85"/>
<path d="M221.119 216.767L214.044 220.922L207.761 217.256L214.837 213.101L221.119 216.767Z" fill="#384E85"/>
<path d="M229.041 221.388L221.966 225.543L215.673 221.872L222.749 217.717L229.041 221.388Z" fill="#384E85"/>
<path d="M265.874 209.031L229.887 230.165L223.595 226.494L259.582 205.36L265.874 209.031Z" fill="#384E85"/>
<path d="M219.542 226.966L212.467 231.121L206.175 227.45L213.25 223.295L219.542 226.966Z" fill="#384E85"/>
<path d="M211.621 222.345L195.047 232.078L188.765 228.412L205.338 218.679L211.621 222.345Z" fill="#384E85"/>
<path d="M210.034 232.55L202.969 236.699L196.676 233.028L203.742 228.879L210.034 232.55Z" fill="#384E85"/>
<path d="M227.464 231.588L210.89 241.321L204.598 237.65L221.172 227.917L227.464 231.588Z" fill="#384E85"/>
<path d="M195.787 213.107L188.712 217.262L185.668 215.486L192.744 211.331L195.787 213.107Z" fill="#384E85"/>
<path d="M271.803 168.466L264.728 172.621L261.684 170.845L268.76 166.69L271.803 168.466Z" fill="#384E85"/>
<path d="M254.758 187.75L247.683 191.905L241.39 188.234L248.466 184.078L254.758 187.75Z" fill="#384E85"/>
<path d="M274.975 203.687L267.9 207.842L261.607 204.17L268.683 200.015L274.975 203.687Z" fill="#384E85"/>
<path d="M267.054 199.065L259.978 203.22L253.686 199.549L260.761 195.394L267.054 199.065Z" fill="#384E85"/>
<path d="M259.132 194.443L252.057 198.598L245.774 194.933L252.849 190.777L259.132 194.443Z" fill="#384E85"/>
<path d="M293.982 192.525L286.906 196.68L280.614 193.009L287.689 188.854L293.982 192.525Z" fill="#384E85"/>
<path d="M284.473 198.109L277.408 202.258L271.115 198.587L278.181 194.437L284.473 198.109Z" fill="#384E85"/>
<path d="M197.739 221.235L187.135 227.462L180.843 223.791L191.446 217.564L197.739 221.235Z" fill="#384E85"/>
<path d="M176.313 157.97C177.683 157.171 178.492 157.346 179.071 157.876L178.293 159.15C177.796 158.643 177.157 158.684 176.378 159.139C174.791 160.065 173.784 162.08 173.79 164.017C173.795 165.947 174.81 166.798 176.396 165.872C177.176 165.417 177.813 164.691 178.306 163.623L179.088 163.994C178.514 165.205 177.709 166.321 176.339 167.121C174.101 168.426 172.59 167.305 172.582 164.722C172.575 162.139 174.075 159.276 176.313 157.97Z" fill="#D9DDF6"/>
<path d="M181.359 162.165C181.82 161.896 182.214 162.123 182.216 162.659C182.217 163.202 181.825 163.88 181.364 164.149C180.896 164.422 180.508 164.199 180.507 163.656C180.505 163.12 180.891 162.438 181.359 162.165Z" fill="#D9DDF6"/>
<path d="M181.944 156.471C182.278 155.89 182.279 155.26 181.946 155.064C181.613 154.869 181.072 155.181 180.738 155.763C180.403 156.344 180.403 156.974 180.736 157.169C181.069 157.365 181.61 157.052 181.944 156.471Z" fill="#D9DDF6"/>
<path d="M183.953 150.042L187.672 160.651L186.756 161.185L183.038 150.576L183.953 150.042Z" fill="#D9DDF6"/>
<path d="M191.2 144.591L197.691 148.337L191.242 159.633L190.201 159.033L195.629 149.54L190.166 146.402L191.2 144.591Z" fill="#D9DDF6"/>
<path d="M204.939 148.352L204.947 151.171L198.158 155.132L198.15 152.313L204.939 148.352Z" fill="#D9DDF6"/>
</svg>
